<svg xmlns="http://www.w3.org/2000/svg" width="32" height="32" viewBox="0 0 32 32" shape-rendering="crispEdges">
  <rect x="11" y="6" width="10" height="2" fill="#9aa4ff"/>
  <rect x="9" y="8" width="14" height="2" fill="#6f78d7"/>
  <rect x="8" y="10" width="16" height="10" fill="#6f78d7"/>
  <rect x="9" y="20" width="14" height="6" fill="#3c428a"/>

  <rect x="8" y="8" width="16" height="1" fill="#20254f"/>
  <rect x="8" y="20" width="16" height="1" fill="#20254f"/>
  <rect x="8" y="9" width="1" height="11" fill="#20254f"/>
  <rect x="23" y="9" width="1" height="11" fill="#20254f"/>

  <rect x="13" y="13" width="2" height="2" fill="#0c1026"/>
  <rect x="18" y="13" width="2" height="2" fill="#0c1026"/>
  <rect x="15" y="16" width="2" height="1" fill="#171f45"/>

  <rect x="13" y="17" width="7" height="3" fill="#c9ceff"/>
  <rect x="14" y="17" width="1" height="3" fill="#20254f"/>
  <rect x="16" y="17" width="1" height="3" fill="#20254f"/>
  <rect x="18" y="16" width="1" height="2" fill="#c9ceff"/>
  <rect x="19" y="16" width="1" height="2" fill="#c9ceff"/>
  <rect x="18" y="15" width="2" height="1" fill="#c9ceff"/>

  <rect x="12" y="25" width="3" height="3" fill="#20254f"/>
  <rect x="17" y="25" width="3" height="3" fill="#20254f"/>
</svg>
