<svg xmlns="http://www.w3.org/2000/svg" width="32" height="32" viewBox="0 0 32 32" shape-rendering="crispEdges">
  <rect x="13" y="4" width="2" height="1" fill="#ffd6f2"/>
  <rect x="17" y="4" width="2" height="1" fill="#ffd6f2"/>
  <rect x="14" y="5" width="4" height="1" fill="#ffd6f2"/>

  <rect x="11" y="6" width="10" height="2" fill="#f4aadf"/>
  <rect x="9" y="8" width="14" height="2" fill="#cf7db8"/>
  <rect x="8" y="10" width="16" height="10" fill="#cf7db8"/>
  <rect x="9" y="20" width="14" height="6" fill="#7d3f6b"/>

  <rect x="8" y="8" width="16" height="1" fill="#46233d"/>
  <rect x="8" y="20" width="16" height="1" fill="#46233d"/>
  <rect x="8" y="9" width="1" height="11" fill="#46233d"/>
  <rect x="23" y="9" width="1" height="11" fill="#46233d"/>

  <rect x="13" y="13" width="2" height="2" fill="#170b14"/>
  <rect x="18" y="13" width="2" height="2" fill="#170b14"/>
  <rect x="15" y="16" width="2" height="1" fill="#2b1530"/>

  <rect x="13" y="17" width="6" height="3" fill="#ffd6f2"/>
  <rect x="14" y="18" width="4" height="1" fill="#cf7db8"/>
  <rect x="15" y="17" width="2" height="3" fill="#f4aadf"/>

  <rect x="12" y="25" width="3" height="3" fill="#46233d"/>
  <rect x="17" y="25" width="3" height="3" fill="#46233d"/>
</svg>
