<svg xmlns="http://www.w3.org/2000/svg" width="32" height="32" viewBox="0 0 32 32" shape-rendering="crispEdges">
  <rect x="11" y="6" width="10" height="2" fill="#e5d2ab"/>
  <rect x="9" y="8" width="14" height="2" fill="#bda57f"/>
  <rect x="8" y="10" width="16" height="10" fill="#bda57f"/>
  <rect x="9" y="20" width="14" height="6" fill="#6e5a3c"/>

  <rect x="8" y="8" width="16" height="1" fill="#3c2f1f"/>
  <rect x="8" y="20" width="16" height="1" fill="#3c2f1f"/>
  <rect x="8" y="9" width="1" height="11" fill="#3c2f1f"/>
  <rect x="23" y="9" width="1" height="11" fill="#3c2f1f"/>

  <rect x="13" y="13" width="2" height="2" fill="#1b160e"/>
  <rect x="18" y="13" width="2" height="2" fill="#1b160e"/>
  <rect x="15" y="16" width="2" height="1" fill="#251e13"/>

  <rect x="12" y="17" width="8" height="3" fill="#f7ebcf"/>
  <rect x="13" y="18" width="6" height="1" fill="#c7b089"/>

  <rect x="21" y="10" width="3" height="1" fill="#f7ebcf"/>
  <rect x="22" y="11" width="2" height="1" fill="#f7ebcf"/>
  <rect x="23" y="12" width="1" height="3" fill="#8f744f"/>

  <rect x="12" y="25" width="3" height="3" fill="#3c2f1f"/>
  <rect x="17" y="25" width="3" height="3" fill="#3c2f1f"/>
</svg>
