<svg xmlns="http://www.w3.org/2000/svg" width="32" height="32" viewBox="0 0 32 32" shape-rendering="crispEdges">
  <rect x="15" y="2" width="2" height="2" fill="#8fb3ff"/>
  <rect x="14" y="4" width="4" height="2" fill="#2d4f9a"/>

  <rect x="11" y="6" width="10" height="2" fill="#8fb3ff"/>
  <rect x="9" y="8" width="14" height="2" fill="#5f8dff"/>
  <rect x="8" y="10" width="16" height="10" fill="#5f8dff"/>
  <rect x="9" y="20" width="14" height="6" fill="#2d4f9a"/>

  <rect x="8" y="8" width="16" height="1" fill="#1a2a54"/>
  <rect x="8" y="20" width="16" height="1" fill="#1a2a54"/>
  <rect x="8" y="9" width="1" height="11" fill="#1a2a54"/>
  <rect x="23" y="9" width="1" height="11" fill="#1a2a54"/>

  <rect x="11" y="12" width="10" height="2" fill="#9be7ff"/>
  <rect x="13" y="13" width="2" height="1" fill="#0a1017"/>
  <rect x="17" y="13" width="2" height="1" fill="#0a1017"/>
  <rect x="15" y="16" width="2" height="1" fill="#101726"/>

  <rect x="14" y="17" width="4" height="3" fill="#9be7ff"/>
  <rect x="12" y="18" width="2" height="2" fill="#3fd6ff"/>
  <rect x="18" y="18" width="2" height="2" fill="#3fd6ff"/>

  <rect x="12" y="25" width="3" height="3" fill="#1a2a54"/>
  <rect x="17" y="25" width="3" height="3" fill="#1a2a54"/>
</svg>
