<svg xmlns="http://www.w3.org/2000/svg" width="32" height="32" viewBox="0 0 32 32" shape-rendering="crispEdges">
  <rect x="11" y="6" width="10" height="2" fill="#88e6a1"/>
  <rect x="9" y="8" width="14" height="2" fill="#58b874"/>
  <rect x="8" y="10" width="16" height="10" fill="#58b874"/>
  <rect x="9" y="20" width="14" height="6" fill="#2b6e43"/>

  <rect x="8" y="8" width="16" height="1" fill="#173c25"/>
  <rect x="8" y="20" width="16" height="1" fill="#173c25"/>
  <rect x="8" y="9" width="1" height="11" fill="#173c25"/>
  <rect x="23" y="9" width="1" height="11" fill="#173c25"/>

  <rect x="13" y="13" width="2" height="2" fill="#0b150f"/>
  <rect x="18" y="13" width="2" height="2" fill="#0b150f"/>
  <rect x="15" y="16" width="2" height="1" fill="#14311f"/>

  <rect x="12" y="17" width="8" height="3" fill="#d7ffdf"/>
  <rect x="15" y="16" width="2" height="5" fill="#58b874"/>
  <rect x="13" y="18" width="6" height="1" fill="#58b874"/>

  <rect x="12" y="25" width="3" height="3" fill="#173c25"/>
  <rect x="17" y="25" width="3" height="3" fill="#173c25"/>
</svg>
